<svg width="110" height="55" viewBox="0 0 110 55" fill="none" xmlns="http://www.w3.org/2000/svg">
<g clip-path="url(#clip0_1461_117409)">
<rect width="110" height="55" fill="white"/>
<g clip-path="url(#clip1_1461_117409)">
<path d="M24.4006 13.3065H3.81994C1.6909 13.3065 -0.0832901 15.0807 -0.0832901 17.2097V37.7903C-0.0832901 39.9194 1.6909 41.6936 3.81994 41.6936H24.4006C26.5296 41.6936 28.3038 39.9194 28.3038 37.7903V17.2097C28.3038 15.0807 26.5296 13.3065 24.4006 13.3065Z" fill="#3E63DD"/>
<g clip-path="url(#clip2_1461_117409)">
<path d="M10.5501 33.6798C10.6537 33.7833 10.6659 33.9478 10.573 34.0636C9.32258 35.6171 7.71424 36.1182 5.74799 36.3664C5.45861 36.4014 5.20883 36.1532 5.24539 35.8638C5.49212 33.8976 5.99473 32.2892 7.54823 31.0388C7.66398 30.9474 7.82847 30.9581 7.93204 31.0616L10.5501 33.6798Z" fill="white"/>
<path d="M22.9568 18.9945C22.9477 18.8087 22.8 18.661 22.6157 18.6533C22.1451 18.6305 21.6836 18.6168 21.2586 18.6412C19.7752 18.7219 18.4989 19.0371 17.1982 19.5885C14.7842 20.6897 12.9276 22.1594 11.4411 23.9977C11.3172 24.1195 11.1939 24.1805 11.071 24.1805C10.6994 24.182 10.1602 24.1119 9.60279 24.1119C9.23269 24.1119 9.03774 24.1165 8.65546 24.1805C7.7264 24.3648 7.20248 24.7181 6.57194 25.4096C6.22925 25.7842 5.94901 26.267 5.70685 26.7285C5.66725 26.8047 5.41595 27.3773 5.25755 27.7413C5.1951 27.8815 5.29867 28.0399 5.4525 28.0383C6.5826 28.0368 7.71117 28.0383 8.84127 28.0383C8.96515 28.0394 9.08902 28.1008 9.21289 28.2226C9.95005 28.9506 10.6141 29.6345 11.2995 30.3107C11.9757 30.9961 12.658 31.6586 13.3876 32.3958C13.5094 32.5196 13.5708 32.6435 13.5718 32.7674C13.5718 33.896 13.5718 35.0261 13.5703 36.1562C13.5703 36.31 13.7272 36.4136 13.8688 36.3526C14.2313 36.1942 14.804 35.9414 14.8801 35.9018C15.3416 35.6612 15.8244 35.3794 16.2006 35.0367C16.8906 34.4077 17.2439 33.8823 17.4267 32.9532C17.4937 32.5724 17.4967 32.3775 17.4967 32.0059C17.4967 31.4484 17.4267 30.9108 17.4267 30.5392C17.4267 30.4153 17.4881 30.2914 17.611 30.1676C19.4493 28.6826 20.919 26.8245 22.0202 24.4104C22.573 23.1098 22.8883 21.835 22.969 20.35C22.9919 19.9266 22.9782 19.4636 22.9568 18.9945ZM18.9467 25.1567C18.2583 25.8452 17.1434 25.8452 16.4534 25.1567C15.765 24.4668 15.765 23.3504 16.4534 22.662C17.1434 21.9721 18.2583 21.9721 18.9467 22.662C19.6381 23.3504 19.6381 24.4668 18.9467 25.1567Z" fill="white"/>
</g>
<path d="M40.1909 35.4839V22.5323H35.4006V20.2258H47.6425V22.7097H42.8522V35.6613H40.1909V35.4839Z" fill="#11181C"/>
<path d="M53.4974 35.6613C52.4328 35.6613 51.3683 35.4839 50.4812 34.9516C49.5941 34.4193 48.8844 33.7097 48.3522 32.8226C47.9973 31.9355 47.8199 30.8709 47.8199 29.629C47.8199 28.3871 47.9973 27.5 48.5296 26.4355C49.0619 25.5484 49.7715 24.8387 50.6586 24.3064C51.3683 23.9516 52.4328 23.5968 53.4974 23.5968C54.5619 23.5968 55.6264 23.7742 56.5135 24.3064C57.4006 24.8387 58.1103 25.5484 58.6425 26.4355C59.1748 27.3226 59.3522 28.3871 59.3522 29.629C59.3522 30.8709 59.1748 31.758 58.6425 32.8226C58.1103 33.7097 57.4006 34.4193 56.5135 34.9516C55.6264 35.4839 54.7393 35.6613 53.4974 35.6613ZM53.4974 33.3548C54.207 33.3548 54.7393 33.1774 55.0941 33C55.6264 32.6451 55.9812 32.2903 56.1586 31.758C56.5135 31.2258 56.5135 30.5161 56.5135 29.8064C56.5135 29.0968 56.3361 28.3871 56.1586 27.8548C55.8038 27.3226 55.449 26.7903 55.0941 26.6129C54.5619 26.258 54.0296 26.258 53.4974 26.258C52.7877 26.258 52.2554 26.4355 51.9006 26.6129C51.3683 26.9677 51.0135 27.3226 50.8361 27.8548C50.4812 28.3871 50.4812 29.0968 50.4812 29.8064C50.4812 30.5161 50.6586 31.2258 50.8361 31.758C51.1909 32.2903 51.5457 32.8226 51.9006 33C52.4328 33.1774 52.9651 33.3548 53.4974 33.3548Z" fill="#11181C"/>
<path d="M66.8036 35.6613C65.7391 35.6613 64.6746 35.4839 63.7875 34.9516C62.9004 34.4193 62.1907 33.7097 61.6585 32.8226C61.1262 31.9355 60.9488 30.8709 60.9488 29.629C60.9488 28.3871 61.1262 27.5 61.6585 26.4355C62.1907 25.7258 62.9004 25.0161 63.7875 24.4839C64.6746 23.9516 65.5617 23.5968 66.8036 23.5968C67.8681 23.5968 68.9327 23.7742 69.8198 24.3064C70.7069 24.8387 71.4165 25.5484 71.9488 26.4355C72.3036 27.5 72.6585 28.5645 72.6585 29.629C72.6585 30.8709 72.481 31.758 71.9488 32.8226C71.4165 33.7097 70.7069 34.4193 69.8198 34.9516C68.9327 35.4839 67.8681 35.6613 66.8036 35.6613ZM66.8036 33.3548C67.5133 33.3548 68.0456 33.1774 68.4004 33C68.9327 32.6451 69.2875 32.2903 69.4649 31.758C69.8198 31.2258 69.8198 30.5161 69.8198 29.8064C69.8198 29.0968 69.6423 28.3871 69.4649 27.8548C69.1101 27.3226 68.7552 26.7903 68.4004 26.6129C67.8681 26.258 67.3359 26.258 66.8036 26.258C66.094 26.258 65.5617 26.4355 65.2069 26.6129C64.6746 26.9677 64.3198 27.3226 64.1423 27.8548C63.7875 28.3871 63.7875 29.0968 63.7875 29.8064C63.7875 30.5161 63.9649 31.2258 64.1423 31.758C64.4972 32.2903 64.852 32.8226 65.2069 33C65.5617 33.1774 66.094 33.3548 66.8036 33.3548Z" fill="#11181C"/>
<path d="M74.9649 35.4839L74.2552 19.1613H76.7391V35.4839H74.9649Z" fill="#11181C"/>
<path d="M82.5943 35.8387C81.7072 35.8387 80.8201 35.6613 80.1104 35.3064C79.4008 34.9516 78.6911 34.4193 78.1588 33.7097L79.7556 31.7581C80.1104 32.2903 80.6427 32.8226 80.9975 33C81.5298 33.3548 82.062 33.3548 82.5943 33.3548C84.0137 33.3548 84.9008 32.4677 84.9008 30.5161V22.5323H79.7556V20.2258H87.562V30.5161C87.562 32.2903 87.2072 33.7097 86.3201 34.5968C85.2556 35.3064 84.0137 35.8387 82.5943 35.8387Z" fill="#11181C"/>
<path d="M100.336 26.6129C99.8042 25.7258 99.2719 25.0161 98.3848 24.4839C97.4977 23.9516 96.6106 23.7742 95.5461 23.7742C94.4816 23.7742 93.4171 23.9516 92.53 24.4839C91.6429 25.0161 90.9332 25.7258 90.5783 26.6129C90.0461 27.5 89.8687 28.5645 89.8687 29.8064C89.8687 31.0484 90.0461 31.9355 90.5783 33C91.1106 33.8871 91.8203 34.5968 92.7074 35.129C93.5945 35.6613 94.659 35.8387 95.9009 35.8387C96.788 35.8387 97.6751 35.6613 98.3848 35.3064C99.0945 34.9516 99.8042 34.4193 100.159 33.8871L98.7396 32.1129C98.3848 32.4677 97.8525 32.8226 97.4977 33C96.9654 33.1774 96.4332 33.3548 95.9009 33.3548C95.1912 33.3548 94.4816 33.1774 93.9493 33C93.4171 32.6452 93.0622 32.2903 92.7074 31.7581C92.53 31.4032 92.3525 31.0484 92.3525 30.6935H101.046C101.046 30.5161 101.046 30.3387 101.046 30.3387C101.046 30.1613 101.046 29.9839 101.046 29.9839C101.046 28.5645 100.691 27.5 100.336 26.6129ZM92.3525 28.7419C92.3525 28.3871 92.53 27.8548 92.7074 27.5C93.0622 26.9677 93.4171 26.6129 93.7719 26.2581C94.3042 25.9032 94.8364 25.9032 95.3687 25.9032C95.9009 25.9032 96.6106 26.0806 96.9654 26.2581C97.4977 26.6129 97.8525 26.9677 98.2074 27.5C98.3848 27.8548 98.5622 28.2097 98.5622 28.7419H92.3525Z" fill="#11181C"/>
<path d="M109.917 34.9516C109.562 35.3065 109.207 35.4839 108.852 35.4839C108.497 35.6613 107.965 35.6613 107.433 35.6613C106.191 35.6613 105.304 35.3065 104.594 34.5968C103.884 33.8871 103.529 33 103.529 31.5807V26.0807H101.755V23.9516H103.529V21.2903H106.191V23.9516H109.207V26.0807H106.191V31.5807C106.191 32.1129 106.368 32.6452 106.546 32.8226C106.723 33.1774 107.255 33.3548 107.61 33.3548C108.142 33.3548 108.675 33.1774 109.029 32.8226L109.917 34.9516Z" fill="#11181C"/>
</g>
</g>
<defs>
<clipPath id="clip0_1461_117409">
<rect width="110" height="55" fill="white"/>
</clipPath>
<clipPath id="clip1_1461_117409">
<rect width="110" height="28.3871" fill="white" transform="translate(-0.0832901 13.3065)"/>
</clipPath>
<clipPath id="clip2_1461_117409">
<rect width="17.7419" height="17.7419" fill="white" transform="translate(5.23929 18.629)"/>
</clipPath>
</defs>
</svg>
